<?xml version="1.0" encoding="UTF-8" standalone="no"?>
<!-- Created with Inkscape (http://www.inkscape.org/) -->

<svg
   xmlns:dc="http://purl.org/dc/elements/1.1/"
   xmlns:cc="http://creativecommons.org/ns#"
   xmlns:rdf="http://www.w3.org/1999/02/22-rdf-syntax-ns#"
   xmlns:svg="http://www.w3.org/2000/svg"
   xmlns="http://www.w3.org/2000/svg"
   xmlns:xlink="http://www.w3.org/1999/xlink"
   xmlns:sodipodi="http://sodipodi.sourceforge.net/DTD/sodipodi-0.dtd"
   xmlns:inkscape="http://www.inkscape.org/namespaces/inkscape"
   width="256"
   height="256"
   id="svg2"
   version="1.1"
   inkscape:version="0.48.3.1 r9886"
   sodipodi:docname="icon.svg"
   inkscape:export-filename="/home/mvd/src/qCamera/viewer/icon.png"
   inkscape:export-xdpi="90"
   inkscape:export-ydpi="90">
  <defs
     id="defs4">
    <linearGradient
       id="linearGradient3776">
      <stop
         style="stop-color:#ff6600;stop-opacity:1;"
         offset="0"
         id="stop3778" />
      <stop
         style="stop-color:#ffffff;stop-opacity:1;"
         offset="1"
         id="stop3780" />
    </linearGradient>
    <linearGradient
       inkscape:collect="always"
       xlink:href="#linearGradient3776"
       id="linearGradient3782"
       x1="200.41072"
       y1="843.36212"
       x2="-79.250008"
       y2="1156.2192"
       gradientUnits="userSpaceOnUse"
       gradientTransform="translate(-2.1428571,-0.71428572)" />
    <filter
       inkscape:collect="always"
       id="filter3812">
      <feGaussianBlur
         inkscape:collect="always"
         stdDeviation="1.946875"
         id="feGaussianBlur3814" />
    </filter>
    <linearGradient
       gradientTransform="matrix(0.234375,0,0,0.234375,-3.159375,-10.938281)"
       id="XMLID_24_"
       y2="77.769997"
       gradientUnits="userSpaceOnUse"
       y1="69.730003"
       x2="152.39999"
       x1="152.39999">
      <stop
         stop-color="#fff"
         offset="0"
         id="stop244" />
      <stop
         offset="1"
         id="stop246" />
      <midPointStop
         stop-color="#FFFFFF"
         offset="0"
         id="midPointStop248" />
      <midPointStop
         stop-color="#FFFFFF"
         offset="0.5"
         id="midPointStop250" />
      <midPointStop
         stop-color="#000000"
         offset="1"
         id="midPointStop252" />
    </linearGradient>
    <linearGradient
       gradientTransform="matrix(0.234375,0,0,0.234375,-3.159375,-10.938281)"
       id="XMLID_23_"
       y2="74.620003"
       gradientUnits="userSpaceOnUse"
       y1="69.040001"
       x2="123.9"
       x1="123.9">
      <stop
         stop-color="#fff"
         offset="0"
         id="stop219" />
      <stop
         stop-color="#f8fbff"
         offset=".0897"
         id="stop221" />
      <stop
         stop-color="#e6f1ff"
         offset=".2165"
         id="stop223" />
      <stop
         stop-color="#c7dfff"
         offset=".3656"
         id="stop225" />
      <stop
         stop-color="#9dc7ff"
         offset=".5315"
         id="stop227" />
      <stop
         stop-color="#67a8ff"
         offset=".7114"
         id="stop229" />
      <stop
         stop-color="#2683ff"
         offset=".9001"
         id="stop231" />
      <stop
         stop-color="#006dff"
         offset="1"
         id="stop233" />
      <midPointStop
         stop-color="#FFFFFF"
         offset="0"
         id="midPointStop235" />
      <midPointStop
         stop-color="#FFFFFF"
         offset="0.6328"
         id="midPointStop237" />
      <midPointStop
         stop-color="#006DFF"
         offset="1"
         id="midPointStop239" />
    </linearGradient>
    <linearGradient
       gradientTransform="matrix(0.234375,0,0,0.234375,-3.159375,-10.938281)"
       id="XMLID_22_"
       y2="76.739998"
       gradientUnits="userSpaceOnUse"
       y1="96.220001"
       x2="123.9"
       x1="122.5">
      <stop
         stop-color="#94caff"
         offset="0"
         id="stop206" />
      <stop
         stop-color="#006dff"
         offset="1"
         id="stop208" />
      <midPointStop
         stop-color="#94CAFF"
         offset="0"
         id="midPointStop210" />
      <midPointStop
         stop-color="#94CAFF"
         offset="0.5"
         id="midPointStop212" />
      <midPointStop
         stop-color="#006DFF"
         offset="1"
         id="midPointStop214" />
    </linearGradient>
    <linearGradient
       gradientTransform="matrix(0.234375,0,0,0.234375,-3.159375,-10.938281)"
       id="XMLID_21_"
       y2="75.699997"
       gradientUnits="userSpaceOnUse"
       y1="68.089996"
       x2="203.3"
       x1="203.3">
      <stop
         stop-color="#fff"
         offset="0"
         id="stop187" />
      <stop
         stop-color="#d2dde9"
         offset="1"
         id="stop189" />
      <midPointStop
         stop-color="#FFFFFF"
         offset="0"
         id="midPointStop191" />
      <midPointStop
         stop-color="#FFFFFF"
         offset="0.5"
         id="midPointStop193" />
      <midPointStop
         stop-color="#D2DDE9"
         offset="1"
         id="midPointStop195" />
    </linearGradient>
    <linearGradient
       gradientTransform="matrix(0.234375,0,0,0.234375,-3.159375,-10.938281)"
       id="XMLID_20_"
       y2="68.949997"
       gradientUnits="userSpaceOnUse"
       y1="80.129997"
       x2="203.3"
       x1="203.3">
      <stop
         stop-color="#b0d9ff"
         offset="0"
         id="stop174" />
      <stop
         stop-color="#57adff"
         offset="1"
         id="stop176" />
      <midPointStop
         stop-color="#B0D9FF"
         offset="0"
         id="midPointStop178" />
      <midPointStop
         stop-color="#B0D9FF"
         offset="0.5"
         id="midPointStop180" />
      <midPointStop
         stop-color="#57ADFF"
         offset="1"
         id="midPointStop182" />
    </linearGradient>
    <linearGradient
       gradientTransform="matrix(0.234375,0,0,0.234375,-3.159375,-10.938281)"
       id="XMLID_19_"
       y2="160.2"
       gradientUnits="userSpaceOnUse"
       y1="108"
       x2="154.3"
       x1="154.3">
      <stop
         stop-color="#b1b1c5"
         offset=".0056"
         id="stop139" />
      <stop
         stop-color="#edeff6"
         offset=".5"
         id="stop141" />
      <stop
         stop-color="#d0d2d8"
         offset="1"
         id="stop143" />
      <midPointStop
         stop-color="#B1B1C5"
         offset="0.0056"
         id="midPointStop145" />
      <midPointStop
         stop-color="#B1B1C5"
         offset="0.5"
         id="midPointStop147" />
      <midPointStop
         stop-color="#EDEFF6"
         offset="0.5"
         id="midPointStop149" />
      <midPointStop
         stop-color="#EDEFF6"
         offset="0.4944"
         id="midPointStop151" />
      <midPointStop
         stop-color="#D0D2D8"
         offset="1"
         id="midPointStop153" />
    </linearGradient>
    <linearGradient
       gradientTransform="matrix(0.234375,0,0,0.234375,-3.159375,-10.938281)"
       id="XMLID_18_"
       y2="135.3"
       gradientUnits="userSpaceOnUse"
       y1="135.3"
       x2="185.89999"
       x1="122.7">
      <stop
         stop-color="#d9d9d9"
         offset="0"
         id="stop122" />
      <stop
         stop-color="#bfbfbf"
         offset="1"
         id="stop124" />
      <midPointStop
         stop-color="#D9D9D9"
         offset="0"
         id="midPointStop126" />
      <midPointStop
         stop-color="#D9D9D9"
         offset="0.5"
         id="midPointStop128" />
      <midPointStop
         stop-color="#BFBFBF"
         offset="1"
         id="midPointStop130" />
    </linearGradient>
    <linearGradient
       gradientTransform="matrix(0.234375,0,0,0.234375,-3.159375,-10.938281)"
       id="XMLID_17_"
       y2="135.3"
       gradientUnits="userSpaceOnUse"
       y1="135.3"
       x2="221.60001"
       x1="86.980003">
      <stop
         stop-color="#bdbdcf"
         offset=".0056"
         id="stop89" />
      <stop
         stop-color="#d8d8e3"
         offset=".1263"
         id="stop91" />
      <stop
         stop-color="#ededf2"
         offset=".2572"
         id="stop93" />
      <stop
         stop-color="#fbfbfc"
         offset=".3838"
         id="stop95" />
      <stop
         stop-color="#fff"
         offset=".5"
         id="stop97" />
      <stop
         stop-color="#f0f0f4"
         offset=".6848"
         id="stop99" />
      <stop
         stop-color="#cecedb"
         offset="1"
         id="stop101" />
      <midPointStop
         stop-color="#BDBDCF"
         offset="0.0056"
         id="midPointStop103" />
      <midPointStop
         stop-color="#BDBDCF"
         offset="0.3103"
         id="midPointStop105" />
      <midPointStop
         stop-color="#FFFFFF"
         offset="0.5"
         id="midPointStop107" />
      <midPointStop
         stop-color="#FFFFFF"
         offset="0.5618"
         id="midPointStop109" />
      <midPointStop
         stop-color="#CECEDB"
         offset="1"
         id="midPointStop111" />
    </linearGradient>
    <linearGradient
       gradientTransform="matrix(0.234375,0,0,0.234375,-3.159375,-10.938281)"
       id="XMLID_16_"
       y2="132"
       gradientUnits="userSpaceOnUse"
       y1="132"
       x2="237.8"
       x1="18.23">
      <stop
         stop-color="#dfdfdf"
         offset="0"
         id="stop44" />
      <stop
         stop-color="#ebebeb"
         offset=".1067"
         id="stop46" />
      <stop
         stop-color="#e9e9e9"
         offset=".1096"
         id="stop48" />
      <stop
         stop-color="#cacad6"
         offset=".1519"
         id="stop50" />
      <stop
         stop-color="#b8b8c9"
         offset=".188"
         id="stop52" />
      <stop
         stop-color="#b1b1c5"
         offset=".2135"
         id="stop54" />
      <stop
         stop-color="#e1e1ff"
         offset=".8708"
         id="stop56" />
      <stop
         stop-color="#99c"
         offset="1"
         id="stop58" />
      <midPointStop
         stop-color="#DFDFDF"
         offset="0"
         id="midPointStop60" />
      <midPointStop
         stop-color="#DFDFDF"
         offset="0.5"
         id="midPointStop62" />
      <midPointStop
         stop-color="#EBEBEB"
         offset="0.1067"
         id="midPointStop64" />
      <midPointStop
         stop-color="#EBEBEB"
         offset="0.3684"
         id="midPointStop66" />
      <midPointStop
         stop-color="#B1B1C5"
         offset="0.2135"
         id="midPointStop68" />
      <midPointStop
         stop-color="#B1B1C5"
         offset="0.5"
         id="midPointStop70" />
      <midPointStop
         stop-color="#E1E1FF"
         offset="0.8708"
         id="midPointStop72" />
      <midPointStop
         stop-color="#E1E1FF"
         offset="0.5"
         id="midPointStop74" />
      <midPointStop
         stop-color="#9999CC"
         offset="1"
         id="midPointStop76" />
    </linearGradient>
    <linearGradient
       gradientTransform="matrix(0.234375,0,0,0.234375,-3.159375,-10.938281)"
       id="XMLID_15_"
       y2="27.200001"
       gradientUnits="userSpaceOnUse"
       y1="255.60001"
       x2="23.24"
       x1="251.60001">
      <stop
         stop-color="#669"
         offset="0"
         id="stop31" />
      <stop
         stop-color="#336"
         offset="1"
         id="stop33" />
      <midPointStop
         stop-color="#666699"
         offset="0"
         id="midPointStop35" />
      <midPointStop
         stop-color="#666699"
         offset="0.5"
         id="midPointStop37" />
      <midPointStop
         stop-color="#333366"
         offset="1"
         id="midPointStop39" />
    </linearGradient>
    <linearGradient
       gradientTransform="matrix(0.234375,0,0,0.234375,-3.159375,-10.938281)"
       id="XMLID_14_"
       y2="54.25"
       gradientUnits="userSpaceOnUse"
       y1="50.119999"
       x2="67.300003"
       x1="67.300003">
      <stop
         stop-color="#ccc"
         offset="0"
         id="stop18" />
      <stop
         stop-color="#666"
         offset="1"
         id="stop20" />
      <midPointStop
         stop-color="#CCCCCC"
         offset="0"
         id="midPointStop22" />
      <midPointStop
         stop-color="#CCCCCC"
         offset="0.5"
         id="midPointStop24" />
      <midPointStop
         stop-color="#666666"
         offset="1"
         id="midPointStop26" />
    </linearGradient>
    <linearGradient
       id="XMLID_13_"
       y2="57.610001"
       gradientUnits="userSpaceOnUse"
       y1="57.610001"
       x2="90.150002"
       x1="44.450001">
      <stop
         stop-color="#669"
         offset="0"
         id="stop5" />
      <stop
         stop-color="#336"
         offset="1"
         id="stop7" />
      <midPointStop
         stop-color="#666699"
         offset="0"
         id="midPointStop9" />
      <midPointStop
         stop-color="#666699"
         offset="0.5"
         id="midPointStop11" />
      <midPointStop
         stop-color="#333366"
         offset="1"
         id="midPointStop13" />
    </linearGradient>
    <linearGradient
       inkscape:collect="always"
       xlink:href="#XMLID_13_"
       id="linearGradient4533"
       gradientUnits="userSpaceOnUse"
       gradientTransform="matrix(0.234375,0,0,0.234375,127.3336,1050.7751)"
       x1="44.450001"
       y1="57.610001"
       x2="90.150002"
       y2="57.610001" />
    <linearGradient
       inkscape:collect="always"
       xlink:href="#XMLID_14_"
       id="linearGradient4535"
       gradientUnits="userSpaceOnUse"
       gradientTransform="matrix(0.234375,0,0,0.234375,127.3336,1050.7751)"
       x1="67.300003"
       y1="50.119999"
       x2="67.300003"
       y2="54.25" />
    <linearGradient
       inkscape:collect="always"
       xlink:href="#XMLID_15_"
       id="linearGradient4537"
       gradientUnits="userSpaceOnUse"
       gradientTransform="matrix(0.234375,0,0,0.234375,127.3336,1050.7751)"
       x1="251.60001"
       y1="255.60001"
       x2="23.24"
       y2="27.200001" />
    <linearGradient
       inkscape:collect="always"
       xlink:href="#XMLID_16_"
       id="linearGradient4539"
       gradientUnits="userSpaceOnUse"
       gradientTransform="matrix(0.234375,0,0,0.234375,127.3336,1050.7751)"
       x1="18.23"
       y1="132"
       x2="237.8"
       y2="132" />
    <linearGradient
       inkscape:collect="always"
       xlink:href="#XMLID_17_"
       id="linearGradient4541"
       gradientUnits="userSpaceOnUse"
       gradientTransform="matrix(0.234375,0,0,0.234375,127.3336,1050.7751)"
       x1="86.980003"
       y1="135.3"
       x2="221.60001"
       y2="135.3" />
    <linearGradient
       inkscape:collect="always"
       xlink:href="#XMLID_18_"
       id="linearGradient4543"
       gradientUnits="userSpaceOnUse"
       gradientTransform="matrix(0.234375,0,0,0.234375,127.3336,1050.7751)"
       x1="122.7"
       y1="135.3"
       x2="185.89999"
       y2="135.3" />
    <linearGradient
       inkscape:collect="always"
       xlink:href="#XMLID_19_"
       id="linearGradient4545"
       gradientUnits="userSpaceOnUse"
       gradientTransform="matrix(0.234375,0,0,0.234375,127.3336,1050.7751)"
       x1="154.3"
       y1="108"
       x2="154.3"
       y2="160.2" />
    <linearGradient
       inkscape:collect="always"
       xlink:href="#XMLID_20_"
       id="linearGradient4547"
       gradientUnits="userSpaceOnUse"
       gradientTransform="matrix(0.234375,0,0,0.234375,127.3336,1050.7751)"
       x1="203.3"
       y1="80.129997"
       x2="203.3"
       y2="68.949997" />
    <linearGradient
       inkscape:collect="always"
       xlink:href="#XMLID_21_"
       id="linearGradient4549"
       gradientUnits="userSpaceOnUse"
       gradientTransform="matrix(0.234375,0,0,0.234375,127.3336,1050.7751)"
       x1="203.3"
       y1="68.089996"
       x2="203.3"
       y2="75.699997" />
    <linearGradient
       inkscape:collect="always"
       xlink:href="#XMLID_22_"
       id="linearGradient4551"
       gradientUnits="userSpaceOnUse"
       gradientTransform="matrix(0.234375,0,0,0.234375,127.3336,1050.7751)"
       x1="122.5"
       y1="96.220001"
       x2="123.9"
       y2="76.739998" />
    <linearGradient
       inkscape:collect="always"
       xlink:href="#XMLID_23_"
       id="linearGradient4553"
       gradientUnits="userSpaceOnUse"
       gradientTransform="matrix(0.234375,0,0,0.234375,127.3336,1050.7751)"
       x1="123.9"
       y1="69.040001"
       x2="123.9"
       y2="74.620003" />
    <linearGradient
       inkscape:collect="always"
       xlink:href="#XMLID_24_"
       id="linearGradient4555"
       gradientUnits="userSpaceOnUse"
       gradientTransform="matrix(0.234375,0,0,0.234375,127.3336,1050.7751)"
       x1="152.39999"
       y1="69.730003"
       x2="152.39999"
       y2="77.769997" />
    <linearGradient
       inkscape:collect="always"
       xlink:href="#linearGradient3776"
       id="linearGradient4563"
       gradientUnits="userSpaceOnUse"
       gradientTransform="translate(-2.1428571,-0.71428572)"
       x1="200.41072"
       y1="843.36212"
       x2="-79.250008"
       y2="1156.2192" />
  </defs>
  <sodipodi:namedview
     id="base"
     pagecolor="#ffffff"
     bordercolor="#666666"
     borderopacity="1.0"
     inkscape:pageopacity="0.0"
     inkscape:pageshadow="2"
     inkscape:zoom="1.979899"
     inkscape:cx="126.3266"
     inkscape:cy="121.25656"
     inkscape:document-units="px"
     inkscape:current-layer="layer1"
     showgrid="false"
     inkscape:window-width="1920"
     inkscape:window-height="1141"
     inkscape:window-x="0"
     inkscape:window-y="27"
     inkscape:window-maximized="1"
     inkscape:snap-bbox="true"
     inkscape:snap-page="false" />
  <metadata
     id="metadata7">
    <rdf:RDF>
      <cc:Work
         rdf:about="">
        <dc:format>image/svg+xml</dc:format>
        <dc:type
           rdf:resource="http://purl.org/dc/dcmitype/StillImage" />
        <dc:title></dc:title>
      </cc:Work>
    </rdf:RDF>
  </metadata>
  <g
     inkscape:label="Layer 1"
     inkscape:groupmode="layer"
     id="layer1"
     transform="translate(0,-796.36218)">
    <g
       id="g4557"
       transform="matrix(0.90105224,0,0,0.90105224,-30.013732,58.503144)">
      <text
         xml:space="preserve"
         style="font-size:14px;font-style:normal;font-variant:normal;font-weight:normal;font-stretch:normal;line-height:125%;letter-spacing:0px;word-spacing:0px;fill:#280b0b;fill-opacity:0.28947371;stroke:none;filter:url(#filter3812);font-family:Bitstream Vera Sans;-inkscape-font-specification:Bitstream Vera Sans"
         x="26.857147"
         y="1009.9335"
         id="text3784"
         sodipodi:linespacing="125%"><tspan
           sodipodi:role="line"
           id="tspan3786"
           x="26.857147"
           y="1009.9335"
           style="font-size:256px;font-style:normal;font-variant:normal;font-weight:bold;font-stretch:normal;fill:#280b0b;fill-opacity:0.28947371;font-family:Arial;-inkscape-font-specification:Arial Bold">Q</tspan></text>
      <text
         sodipodi:linespacing="125%"
         id="text2985"
         y="1005.9335"
         x="22.857147"
         style="font-size:14px;font-style:normal;font-variant:normal;font-weight:normal;font-stretch:normal;line-height:125%;letter-spacing:0px;word-spacing:0px;fill:url(#linearGradient4563);fill-opacity:1;stroke:none;font-family:Bitstream Vera Sans;-inkscape-font-specification:Bitstream Vera Sans"
         xml:space="preserve"><tspan
           style="font-size:256px;font-style:normal;font-variant:normal;font-weight:bold;font-stretch:normal;fill:url(#linearGradient4563);fill-opacity:1;font-family:Arial;-inkscape-font-specification:Arial Bold"
           y="1005.9335"
           x="22.857147"
           id="tspan2987"
           sodipodi:role="line">Q</tspan></text>
    </g>
    <g
       id="g4499"
       transform="matrix(2.3364389,0,0,2.3364389,-174.30088,-1517.3283)">
      <path
         id="path15"
         d="m 137.75157,1064.2774 c 0,1.4625 2.30156,2.5664 5.35547,2.5664 3.05156,0 5.35313,-1.1039 5.35313,-2.5664 0,-1.4625 -2.30157,-2.5641 -5.35313,-2.5641 -3.05391,0 -5.35547,1.1016 -5.35547,2.5641 z"
         inkscape:connector-curvature="0"
         style="fill:url(#linearGradient4533)" />
      <path
         id="path28"
         d="m 138.7922,1063.9141 c 0,0.3586 1.48359,1.3946 4.31484,1.3946 2.83125,0 4.31484,-1.036 4.31484,-1.3946 0,-0.3562 -1.48359,-1.3922 -4.31484,-1.3922 -2.83125,0 -4.31484,1.036 -4.31484,1.3922 z"
         inkscape:connector-curvature="0"
         style="fill:url(#linearGradient4535)" />
      <path
         id="path41"
         d="m 133.61485,1063.5696 c -1.72265,0 -3.12187,1.3992 -3.12187,3.1219 v 30.0234 c 0,1.7344 1.39922,3.1172 3.12187,3.1172 h 47.4375 c 1.71094,0 3.11719,-1.3828 3.11719,-3.1172 v -30.0234 c 0,-1.7227 -1.40625,-3.1219 -3.11719,-3.1219 h -47.4375 z"
         inkscape:connector-curvature="0"
         style="fill:url(#linearGradient4537)" />
      <path
         id="path78"
         d="m 183.06798,1096.7126 c 0,1.1015 -0.91406,2.0156 -2.01563,2.0156 h -47.4375 c -1.10859,0 -2.00859,-0.9141 -2.00859,-2.0156 v -30.0235 c 0,-1.1086 0.9,-2.0086 2.00859,-2.0086 h 47.4375 c 1.10157,0 2.01563,0.9 2.01563,2.0086 v 30.0235 z"
         inkscape:connector-curvature="0"
         style="fill:url(#linearGradient4539)" />
      <path
         id="path80"
         d="m 132.27657,1096.7126 v -30.0235 c 0,-1.1086 0.89766,-2.0086 2.0086,-2.0086 h -0.67032 c -1.10859,0 -2.00859,0.9 -2.00859,2.0086 v 30.0235 c 0,1.1015 0.9,2.0156 2.00859,2.0156 h 0.67032 c -1.11094,0 -2.0086,-0.9141 -2.0086,-2.0156 z"
         inkscape:connector-curvature="0"
         style="fill:#bfbfbf" />
      <path
         id="path82"
         d="m 181.05235,1064.6829 h -47.4375 c -1.10859,0 -2.00859,0.9 -2.00859,2.0086 v 1.1718 c 0,-1.0687 0.9,-1.9359 2.00859,-1.9359 h 47.4375 c 1.10157,0 2.01563,0.8672 2.01563,1.9359 v -1.1718 c 0,-1.1086 -0.91406,-2.0086 -2.01563,-2.0086 z"
         inkscape:connector-curvature="0"
         style="opacity:0.7;fill:#ffffff" />
      <path
         id="path84"
         d="m 146.93907,1082.486 c 0,9.1406 7.41797,16.5703 16.5586,16.5703 9.14062,0 16.57031,-7.4297 16.57031,-16.5703 0,-9.1219 -7.42969,-16.5516 -16.57031,-16.5516 -9.14063,0 -16.5586,7.4297 -16.5586,16.5516 z"
         inkscape:connector-curvature="0"
         style="fill:#616161" />
      <circle
         id="circle86"
         r="68.760002"
         cx="154.3"
         cy="135.3"
         transform="matrix(0.234375,0,0,0.234375,127.3336,1050.7751)"
         sodipodi:cx="154.3"
         sodipodi:cy="135.3"
         sodipodi:rx="68.760002"
         sodipodi:ry="68.760002"
         style="fill:#999999"
         d="m 223.06001,135.3 c 0,37.9751 -30.78491,68.76001 -68.76001,68.76001 -37.9751,0 -68.759999,-30.78491 -68.759999,-68.76001 0,-37.975098 30.784899,-68.759999 68.759999,-68.759999 37.9751,0 68.76001,30.784901 68.76001,68.759999 z" />
      <path
         id="path113"
         d="m 147.71954,1082.486 c 0,8.7188 7.08281,15.7969 15.77813,15.7969 8.69531,0 15.77343,-7.0781 15.77343,-15.7969 0,-8.693 -7.07812,-15.7711 -15.77343,-15.7711 -8.69532,0 -15.77813,7.0781 -15.77813,15.7711 z"
         inkscape:connector-curvature="0"
         style="fill:url(#linearGradient4541)" />
      <path
         id="path115"
         d="m 155.0836,1082.486 c 0,4.6406 3.77344,8.4141 8.41407,8.4141 4.64062,0 8.41406,-3.7735 8.41406,-8.4141 0,-4.6406 -3.77344,-8.407 -8.41406,-8.407 -4.64063,0 -8.41407,3.7664 -8.41407,8.407 z"
         inkscape:connector-curvature="0"
         style="fill:#f7f7f7" />
      <path
         id="path117"
         d="m 155.76329,1082.486 c 0,4.2891 3.46875,7.7578 7.73438,7.7578 4.26562,0 7.75781,-3.4687 7.75781,-7.7578 0,-4.2656 -3.49219,-7.7344 -7.75781,-7.7344 -4.26563,0 -7.73438,3.4688 -7.73438,7.7344 z"
         inkscape:connector-curvature="0"
         style="fill:#666666" />
      <path
         id="path119"
         d="m 156.32579,1082.7673 c 0,4.125 3.35156,7.4765 7.45313,7.4765 4.125,0 7.47656,-3.3515 7.47656,-7.4765 0,-4.1016 -3.35156,-7.4532 -7.47656,-7.4532 -4.10157,0 -7.45313,3.3516 -7.45313,7.4532 z"
         inkscape:connector-curvature="0"
         style="fill:#666666" />
      <path
         id="path132"
         d="m 156.09141,1082.486 c 0,4.1016 3.32813,7.4297 7.40626,7.4297 4.07812,0 7.40625,-3.3281 7.40625,-7.4297 0,-4.0781 -3.32813,-7.4062 -7.40625,-7.4062 -4.07813,0 -7.40625,3.3281 -7.40625,7.4062 z"
         inkscape:connector-curvature="0"
         style="fill:url(#linearGradient4543)" />
      <path
         id="path134"
         d="m 156.30235,1082.6032 c 0,-4.0313 3.28125,-7.2891 7.3125,-7.2891 4.00781,0 7.26563,3.2344 7.28906,7.2422 v -0.07 c 0,-4.0781 -3.32812,-7.4062 -7.40625,-7.4062 -4.07812,0 -7.40625,3.3281 -7.40625,7.4062 0,4.1016 3.32813,7.4297 7.40625,7.4297 h 0.0469 c -3.98437,-0.047 -7.24218,-3.3047 -7.24218,-7.3125 z"
         inkscape:connector-curvature="0"
         style="fill:#ffffff" />
      <path
         id="path136"
         d="m 157.09923,1082.486 c 0,3.5391 2.85937,6.4219 6.39844,6.4219 3.53906,0 6.39843,-2.8828 6.39843,-6.4219 0,-3.5156 -2.85937,-6.3984 -6.39843,-6.3984 -3.53907,0 -6.39844,2.8828 -6.39844,6.3984 z"
         inkscape:connector-curvature="0"
         style="fill:#999999" />
      <path
         id="path155"
         d="m 157.42735,1082.486 c 0,3.3516 2.71875,6.0703 6.07032,6.0703 3.35156,0 6.07031,-2.7187 6.07031,-6.0703 0,-3.3281 -2.71875,-6.0703 -6.07031,-6.0703 -3.35157,0 -6.07032,2.7422 -6.07032,6.0703 z"
         inkscape:connector-curvature="0"
         style="fill:url(#linearGradient4545)" />
      <path
         id="path157"
         d="m 159.7711,1082.486 c 0,2.0625 1.66406,3.7266 3.72657,3.7266 2.0625,0 3.72656,-1.6641 3.72656,-3.7266 0,-2.0391 -1.66406,-3.7266 -3.72656,-3.7266 -2.06251,0 -3.72657,1.6875 -3.72657,3.7266 z"
         inkscape:connector-curvature="0"
         style="fill:#ffffff" />
      <path
         id="path159"
         d="m 159.7711,1082.486 c 0,2.0625 1.66406,3.7266 3.72657,3.7266 2.0625,0 3.72656,-1.6641 3.72656,-3.7266 0,-2.0391 -1.66406,-3.7266 -3.72656,-3.7266 -2.06251,0 -3.72657,1.6875 -3.72657,3.7266 z"
         inkscape:connector-curvature="0" />
      <path
         id="path161"
         d="m 163.49767,1066.7149 c -0.0469,0 -0.0703,0 -0.11719,0 8.53125,0.063 15.44531,7.1156 15.44531,15.7688 0,8.6718 -6.91406,15.7265 -15.44531,15.7968 h 0.11719 c 8.69531,0 15.77343,-7.0781 15.77343,-15.7968 0,-8.693 -7.07812,-15.7711 -15.77343,-15.7711 z"
         inkscape:connector-curvature="0"
         style="opacity:0.6;fill:#ffffff" />
      <path
         id="path163"
         d="m 148.05704,1082.486 c 0,-8.6648 6.95625,-15.7219 15.53438,-15.7687 -0.0469,0 -0.0703,0 -0.0937,0 -8.69532,0 -15.77813,7.0781 -15.77813,15.771 0,8.7188 7.08281,15.7969 15.77813,15.7969 h 0.0937 c -8.57813,-0.047 -15.53438,-7.125 -15.53438,-15.7969 z"
         inkscape:connector-curvature="0"
         style="opacity:0.8;fill:#ffffff" />
      <path
         id="path165"
         d="m 169.38048,1067.4907 v 2.2922 c 0,0.3937 0.32812,0.7148 0.70312,0.7148 h 4.17188 c -1.42969,-1.275 -3.07031,-2.2969 -4.875,-3.007 z"
         inkscape:connector-curvature="0"
         style="fill:#999999" />
      <path
         id="path167"
         d="m 169.38048,1067.854 v 1.9289 c 0,0.3937 0.32812,0.7148 0.70312,0.7148 h 3.65625 c -1.28906,-1.1015 -2.76562,-1.9992 -4.35937,-2.6437 z"
         inkscape:connector-curvature="0"
         style="fill:#ffffff" />
      <path
         id="path169"
         d="m 170.06017,1069.5555 c 0,0.3703 0.30468,0.6703 0.65625,0.6703 h 8.50781 c 0.375,0 0.67969,-0.3 0.67969,-0.6703 v -2.6203 c 0,-0.3679 -0.30469,-0.6679 -0.67969,-0.6679 h -8.50781 c -0.35157,0 -0.65625,0.3 -0.65625,0.6679 v 2.6203 z"
         inkscape:connector-curvature="0"
         style="fill:#4d4d4d" />
      <path
         id="path171"
         d="m 170.71642,1066.6024 c -0.18751,0 -0.32813,0.15 -0.32813,0.3328 v 2.6203 c 0,0.1852 0.14062,0.3352 0.32813,0.3352 h 8.50781 c 0.1875,0 0.32812,-0.15 0.32812,-0.3352 v -2.6203 c 0,-0.1828 -0.14062,-0.3328 -0.32812,-0.3328 h -8.50782 z"
         inkscape:connector-curvature="0"
         style="fill:#9db3d0" />
      <rect
         id="rect184"
         x="170.71642"
         y="1066.9352"
         width="8.4984369"
         height="2.6203127"
         style="fill:url(#linearGradient4547)" />
      <path
         id="path197"
         d="m 170.71642,1066.6024 v 2.2899 c 2.92968,-0.5063 5.57812,-1.6735 8.50781,-1.6243 v -0.6679 c 0,0 -8.50782,0 -8.50782,0 z"
         inkscape:connector-curvature="0"
         style="fill:url(#linearGradient4549)" />
      <circle
         id="circle199"
         r="12.06"
         cx="123.9"
         cy="76.709999"
         transform="matrix(0.234375,0,0,0.234375,127.3336,1050.7751)"
         sodipodi:cx="123.9"
         sodipodi:cy="76.709999"
         sodipodi:rx="12.06"
         sodipodi:ry="12.06"
         d="m 135.96,76.709999 c 0,6.660554 -5.39944,12.060001 -12.06,12.060001 -6.66055,0 -12.06,-5.399447 -12.06,-12.060001 0,-6.660554 5.39945,-12.06 12.06,-12.06 6.66056,0 12.06,5.399446 12.06,12.06 z" />
      <path
         id="path201"
         d="m 162.13829,1067.1133 c -0.72656,0.3821 -1.21875,1.1438 -1.21875,2.018 0,1.2586 1.00781,2.2828 2.27344,2.2828 1.26562,0 2.27344,-1.0242 2.27344,-2.2828 0,-0.914 -0.53907,-1.6992 -1.3125,-2.0648 -0.21094,-0.01 -0.42188,-0.016 -0.65626,-0.016 -0.46875,0 -0.91406,0.023 -1.35937,0.063 z"
         inkscape:connector-curvature="0"
         style="fill:#ffffff" />
      <path
         id="path203"
         d="m 161.13048,1069.0891 c 0,1.0711 0.86718,1.943 1.94531,1.943 1.05469,0 1.92188,-0.8719 1.92188,-1.943 0,-1.0711 -0.86719,-1.9406 -1.92188,-1.9406 -1.07813,0 -1.94531,0.8695 -1.94531,1.9406 z"
         inkscape:connector-curvature="0" />
      <path
         id="path216"
         d="m 154.54454,1068.754 c 0,1.0054 0.82031,1.8234 1.82812,1.8234 1.00782,0 1.82813,-0.818 1.82813,-1.8234 0,-1.0055 -0.82031,-1.8211 -1.82813,-1.8211 -1.00781,0 -1.82812,0.8156 -1.82812,1.8211 z"
         inkscape:connector-curvature="0"
         style="fill:url(#linearGradient4551)" />
      <path
         id="path241"
         d="m 156.37266,1066.9563 c -0.58593,0 -1.10156,0.3047 -1.33593,0.7453 0.0703,0.5953 0.63281,1.0594 1.33593,1.0594 0.70313,0 1.26563,-0.457 1.33594,-1.0477 -0.23437,-0.4453 -0.75,-0.757 -1.33594,-0.757 z"
         inkscape:connector-curvature="0"
         style="fill:url(#linearGradient4553)" />
      <path
         id="path254"
         d="m 161.81016,1068.6157 c 0.23438,0.45 0.67969,0.7641 1.21875,0.7641 0.56251,0 1.05469,-0.3469 1.26563,-0.8391 -0.21094,-0.4641 -0.67969,-0.7899 -1.21875,-0.7899 -0.58594,0 -1.05469,0.361 -1.26563,0.8649 z"
         inkscape:connector-curvature="0"
         style="fill:url(#linearGradient4555)" />
    </g>
  </g>
</svg>
